<svg width="52.1mm" height="13.4mm" version="1.1" viewBox="0 0 52.1 13.4" xmlns="http://www.w3.org/2000/svg">
	<g stroke-linecap="round" stroke-linejoin="round">
		<rect x=".264" y=".264" width="12.9" height="12.9" ry="3.45" fill="#1a1a1a" opacity=".568" stroke="#fefefe" stroke-width=".529"/>
		<g transform="translate(-.036 -.036)" fill="#fff" stroke-width=".265" aria-label="B">
			<path d="m4.58 3.08h1.9q.9 0 1.36.14.47.14.75.57.29.42.29 1.37 0 .65-.21.9-.2.25-.79.39.66.15.9.5.23.34.23 1.05v.68q0 .74-.17 1.1-.17.32-.54.52-.37.1-1.52.1h-2.2zm1.9 1.25v1.63q.13 0 .19 0 .28 0 .36-.14.1-.14.1-.79 0-.35-.1-.48-.1-.14-.16-.18-.1 0-.4 0zm0 2.77v2.05q.41-.02.51-.13.12-.11.12-.56v-.68q0-.47-.1-.57t-.53-.11z"/>
		</g>
		<g transform="translate(-.036 -.036)" fill="#fff" stroke-width=".104" aria-label="4">
			<path d="m10.8 2.12v1.88h.2v.49h-.2v.51h-.7v-.51h-.88v-.49l.62-1.88zm-.7 1.88v-1.22l-.34 1.22z"/>
		</g>
		<rect x="13.2" y=".264" width="12.9" height="12.9" ry="3.45" fill="#1a1a1a" opacity=".568" stroke="#fefefe" stroke-width=".529"/>
		<path d="m32 4.08v1.88h.2v.49h-.2v.51h-.7v-.51h-.9v-.49l.6-1.88zm-.7 1.88v-1.22l-.3 1.22z" fill="#fff" stroke-width=".104"/>
		<g fill="#fff" stroke-width=".212" aria-label="1">
			<path d="m23.3 2.03v2.93h-.7v-1.57q0-.34 0-.41 0-.1-.1-.1t-.3-0h-.1v-.38q.5-.11.8-.47z"/>
		</g>
		<rect x="26.1" y=".264" width="12.9" height="12.9" ry="3.45" fill="#1a1a1a" opacity=".568" stroke="#fefefe" stroke-width=".529"/>
		<rect x="39" y=".264" width="12.9" height="12.9" ry="3.45" fill="#1a1a1a" opacity=".568" stroke="#fefefe" stroke-width=".529"/>
	</g>
	<g fill="#fff" stroke-linecap="round" stroke-linejoin="round">
		<g stroke-width=".53">
			<g aria-label="O">
				<path d="m21.8 7.33q0 1.1-.1 1.56 0 .46-.3.84-.3.37-.7.57-.5.2-1.1.2t-1.1-.2q-.4-.2-.7-.55-.3-.39-.4-.84 0-.45 0-1.58v-1.25q0-1.11 0-1.56.1-.47.4-.85.2-.38.7-.58t1.1-.2 1 .19q.5.19.8.58.3.38.3.83.1.46.1 1.59zm-1.9-2.41q0-.51-.1-.65 0-.14-.2-.14-.1 0-.2.11-.1.12-.1.68v3.42q0 .64 0 .79.1.15.3.15t.2-.17q.1-.17.1-.82z"/>
			</g>
			<g aria-label="G">
				<path d="m34.7 5.74h-1.9v-.67q0-.63 0-.78-.1-.16-.3-.16t-.2.13q-.1.14-.1.7v3.51q0 .5.1.66 0 .15.2.15t.3-.18q.1-.17.1-.69v-.86h-.4v-1.12h2.2v3.97h-1.2l-.2-.56q-.2.36-.5.56-.2.1-.7.1-.4 0-.9-.2-.4-.2-.6-.59-.2-.35-.3-.72 0-.38 0-1.14v-2.17q0-1.05.1-1.53.1-.47.7-.86.5-.4 1.3-.4.9 0 1.4.34.6.34.7.82.2.47.2 1.37z"/>
			</g>
			<g aria-label="L">
				<path d="m45.7 3.04v5.86h1.2v1.5h-3.1v-7.36z"/>
			</g>
		</g>
		<g stroke-width=".212" aria-label="3">
			<path d="m36.9 3.24q.1.1.2.19.1.12.1.59 0 .35-.1.55-.1.19-.3.29t-.5.1-.5-.12-.3-.28q0-.17 0-.59v-.23h.7v.47q0 .19 0 .25 0 0 .1 0t.1-.1q.1-.1.1-.34v-.12q0-.17-.1-.25 0-.1-.1-.1t-.3-0v-.45q.3 0 .4-0 0-0 0-.1.1-.1.1-.21v-.17q0-.16-.1-.21 0-0-.1-0 0 0-.1 0 0 .1 0 .22v.25h-.7v-.25q0-.42.2-.57t.6-.15q.5 0 .7.21.2.2.2.57 0 .24-.1.35t-.2.2z"/>
		</g>
		<g stroke-width=".212" aria-label="2">
			<path d="m48.7 4.46v.5h-1.6v-.42q.7-1.17.8-1.44.1-.28.1-.44 0-.12 0-.17 0-.1-.1-.1t-.1.1q-.1.1-.1.26v.28h-.6v-.11q0-.24 0-.39 0-.14.1-.28.1-.13.3-.2.1-.1.4-.1.4 0 .6.21.2.22.2.55 0 .25-.1.53t-.7 1.19z"/>
		</g>
	</g>
</svg>
